<?xml version="1.0" encoding="UTF-8"?>
<svg id="Layer_1" xmlns="http://www.w3.org/2000/svg" viewBox="0 0 192 192">
  <defs>
    <style>
      .cls-1 {
        fill: #231f20;
      }

      .cls-2 {
        fill: #fff;
      }

      .cls-3 {
        fill: #0c8241;
      }
    </style>
  </defs>
  <rect class="cls-2" width="192" height="192"/>
  <path class="cls-3" d="M138.53,48.66C88.11-.38,22.62,9.73,15.98,10.87l39.07,39.15,13.58-13.58,8.89,8.89-13.59,13.59,9.73,9.75,13.6-13.6,8.89,8.89-13.61,13.61,9.69,9.71,13.62-13.62,8.89,8.89-13.63,13.63,9.61,9.63,13.64-13.64,8.89,8.89-13.65,13.65,9.69,9.71,13.66-13.66,8.89,8.89-13.66,13.66,40.85,40.94c1.02-5.84,11.78-74.76-40.51-125.62Z"/>
  <path class="cls-1" d="M50.43,139.15c50.42,49.04,115.92,38.93,122.55,37.79l-39.07-39.15-13.58,13.58-8.89-8.89,13.59-13.59-9.73-9.75-13.6,13.6-8.89-8.89,13.61-13.61-9.69-9.71-13.62,13.62-8.89-8.89,13.63-13.63-9.61-9.63-13.64,13.64-8.89-8.89,13.65-13.65-9.69-9.71-13.66,13.66-8.89-8.89,13.66-13.66L9.92,13.53c-1.02,5.84-11.78,74.76,40.51,125.62Z"/>
</svg>